<svg width="31" height="401" viewBox="0 0 31 401" fill="none" xmlns="http://www.w3.org/2000/svg">
<g clip-path="url(#clip0_78_264)">
<line x1="15" y1="26.9942" x2="16" y2="371.994" stroke="black" stroke-width="4"/>
<path d="M10 26H20" stroke="black" stroke-width="3" stroke-linecap="round"/>
<path d="M11 372H21" stroke="black" stroke-width="3" stroke-linecap="round"/>
<path d="M8.00781 392H1.52051V390.635L3.8501 388.28C4.31982 387.798 4.69645 387.396 4.97998 387.074C5.26774 386.748 5.4751 386.452 5.60205 386.186C5.73324 385.919 5.79883 385.633 5.79883 385.329C5.79883 384.96 5.69515 384.685 5.48779 384.503C5.28467 384.317 5.01172 384.224 4.66895 384.224C4.30924 384.224 3.96012 384.307 3.62158 384.472C3.28304 384.637 2.92969 384.872 2.56152 385.176L1.49512 383.913C1.76172 383.685 2.04313 383.469 2.33936 383.266C2.63981 383.062 2.98682 382.9 3.38037 382.777C3.77816 382.65 4.25423 382.586 4.80859 382.586C5.41797 382.586 5.94059 382.696 6.37646 382.917C6.81657 383.137 7.15511 383.437 7.39209 383.818C7.62907 384.194 7.74756 384.622 7.74756 385.1C7.74756 385.612 7.646 386.08 7.44287 386.503C7.23975 386.926 6.94352 387.345 6.5542 387.76C6.16911 388.174 5.70361 388.634 5.15771 389.137L3.96436 390.261V390.35H8.00781V392ZM15.3965 387.36C15.3965 388.109 15.3372 388.778 15.2188 389.366C15.1045 389.954 14.9183 390.453 14.6602 390.864C14.4062 391.274 14.0719 391.587 13.6572 391.803C13.2425 392.019 12.7389 392.127 12.1465 392.127C11.4017 392.127 10.7902 391.939 10.312 391.562C9.83382 391.181 9.48047 390.635 9.25195 389.924C9.02344 389.209 8.90918 388.354 8.90918 387.36C8.90918 386.357 9.01286 385.5 9.22021 384.789C9.4318 384.074 9.77458 383.526 10.2485 383.145C10.7225 382.764 11.3551 382.574 12.1465 382.574C12.887 382.574 13.4964 382.764 13.9746 383.145C14.457 383.522 14.8146 384.068 15.0474 384.783C15.2801 385.494 15.3965 386.353 15.3965 387.36ZM10.8579 387.36C10.8579 388.067 10.896 388.657 10.9722 389.131C11.0526 389.601 11.1859 389.954 11.3721 390.191C11.5583 390.428 11.8164 390.546 12.1465 390.546C12.4723 390.546 12.7284 390.43 12.9146 390.197C13.105 389.96 13.2404 389.607 13.3208 389.137C13.4012 388.663 13.4414 388.071 13.4414 387.36C13.4414 386.653 13.4012 386.063 13.3208 385.589C13.2404 385.115 13.105 384.759 12.9146 384.522C12.7284 384.281 12.4723 384.161 12.1465 384.161C11.8164 384.161 11.5583 384.281 11.3721 384.522C11.1859 384.759 11.0526 385.115 10.9722 385.589C10.896 386.063 10.8579 386.653 10.8579 387.36ZM22.8867 392H16.3994V390.635L18.729 388.28C19.1987 387.798 19.5754 387.396 19.8589 387.074C20.1466 386.748 20.354 386.452 20.481 386.186C20.6121 385.919 20.6777 385.633 20.6777 385.329C20.6777 384.96 20.5741 384.685 20.3667 384.503C20.1636 384.317 19.8906 384.224 19.5479 384.224C19.1882 384.224 18.839 384.307 18.5005 384.472C18.1619 384.637 17.8086 384.872 17.4404 385.176L16.374 383.913C16.6406 383.685 16.922 383.469 17.2183 383.266C17.5187 383.062 17.8657 382.9 18.2593 382.777C18.6571 382.65 19.1331 382.586 19.6875 382.586C20.2969 382.586 20.8195 382.696 21.2554 382.917C21.6955 383.137 22.034 383.437 22.271 383.818C22.508 384.194 22.6265 384.622 22.6265 385.1C22.6265 385.612 22.5249 386.08 22.3218 386.503C22.1187 386.926 21.8224 387.345 21.4331 387.76C21.048 388.174 20.5825 388.634 20.0366 389.137L18.8433 390.261V390.35H22.8867V392ZM27.2158 386.071C27.7829 386.071 28.2865 386.179 28.7266 386.395C29.1709 386.611 29.52 386.928 29.7739 387.347C30.0278 387.766 30.1548 388.282 30.1548 388.896C30.1548 389.565 30.0151 390.142 29.7358 390.629C29.4608 391.111 29.0482 391.482 28.498 391.74C27.9521 391.998 27.2708 392.127 26.4541 392.127C25.9674 392.127 25.5083 392.085 25.0767 392C24.6493 391.92 24.2747 391.795 23.9531 391.625V389.931C24.2747 390.1 24.6598 390.244 25.1084 390.362C25.5612 390.477 25.9865 390.534 26.3843 390.534C26.7736 390.534 27.1016 390.483 27.3682 390.381C27.6348 390.276 27.8358 390.115 27.9712 389.899C28.1108 389.679 28.1807 389.4 28.1807 389.061C28.1807 388.608 28.0283 388.261 27.7236 388.02C27.4189 387.779 26.9513 387.658 26.3208 387.658C26.0796 387.658 25.8278 387.681 25.5654 387.728C25.3073 387.775 25.0915 387.821 24.918 387.868L24.1372 387.449L24.4863 382.72H29.52V384.383H26.2065L26.0352 386.205C26.179 386.175 26.3356 386.145 26.5049 386.116C26.6742 386.086 26.9111 386.071 27.2158 386.071Z" fill="black"/>
<path d="M7.00781 19H0.520508V17.6353L2.8501 15.2803C3.31982 14.7979 3.69645 14.3958 3.97998 14.0742C4.26774 13.7484 4.4751 13.4521 4.60205 13.1855C4.73324 12.9189 4.79883 12.6333 4.79883 12.3286C4.79883 11.9604 4.69515 11.6854 4.48779 11.5034C4.28467 11.3172 4.01172 11.2241 3.66895 11.2241C3.30924 11.2241 2.96012 11.3066 2.62158 11.4717C2.28304 11.6367 1.92969 11.8716 1.56152 12.1763L0.495117 10.9131C0.761719 10.6846 1.04313 10.4688 1.33936 10.2656C1.63981 10.0625 1.98682 9.89958 2.38037 9.77686C2.77816 9.6499 3.25423 9.58643 3.80859 9.58643C4.41797 9.58643 4.94059 9.69645 5.37646 9.9165C5.81657 10.1366 6.15511 10.437 6.39209 10.8179C6.62907 11.1945 6.74756 11.6219 6.74756 12.1001C6.74756 12.6121 6.646 13.0798 6.44287 13.5029C6.23975 13.9261 5.94352 14.3451 5.5542 14.7598C5.16911 15.1745 4.70361 15.6336 4.15771 16.1372L2.96436 17.2607V17.3496H7.00781V19ZM14.3965 14.3599C14.3965 15.1089 14.3372 15.7775 14.2188 16.3657C14.1045 16.9539 13.9183 17.4533 13.6602 17.8638C13.4062 18.2743 13.0719 18.5874 12.6572 18.8032C12.2425 19.019 11.7389 19.127 11.1465 19.127C10.4017 19.127 9.7902 18.9386 9.31201 18.562C8.83382 18.1812 8.48047 17.6353 8.25195 16.9243C8.02344 16.2091 7.90918 15.3543 7.90918 14.3599C7.90918 13.3569 8.01286 12.5 8.22021 11.7891C8.4318 11.0739 8.77458 10.5259 9.24854 10.145C9.72249 9.76416 10.3551 9.57373 11.1465 9.57373C11.887 9.57373 12.4964 9.76416 12.9746 10.145C13.457 10.5216 13.8146 11.0675 14.0474 11.7827C14.2801 12.4937 14.3965 13.3527 14.3965 14.3599ZM9.85791 14.3599C9.85791 15.0666 9.896 15.6569 9.97217 16.1309C10.0526 16.6006 10.1859 16.9539 10.3721 17.1909C10.5583 17.4279 10.8164 17.5464 11.1465 17.5464C11.4723 17.5464 11.7284 17.43 11.9146 17.1973C12.105 16.9603 12.2404 16.6069 12.3208 16.1372C12.4012 15.6632 12.4414 15.0708 12.4414 14.3599C12.4414 13.6532 12.4012 13.0628 12.3208 12.5889C12.2404 12.1149 12.105 11.7594 11.9146 11.5225C11.7284 11.2812 11.4723 11.1606 11.1465 11.1606C10.8164 11.1606 10.5583 11.2812 10.3721 11.5225C10.1859 11.7594 10.0526 12.1149 9.97217 12.5889C9.896 13.0628 9.85791 13.6532 9.85791 14.3599ZM21.8867 19H15.3994V17.6353L17.729 15.2803C18.1987 14.7979 18.5754 14.3958 18.8589 14.0742C19.1466 13.7484 19.354 13.4521 19.481 13.1855C19.6121 12.9189 19.6777 12.6333 19.6777 12.3286C19.6777 11.9604 19.5741 11.6854 19.3667 11.5034C19.1636 11.3172 18.8906 11.2241 18.5479 11.2241C18.1882 11.2241 17.839 11.3066 17.5005 11.4717C17.1619 11.6367 16.8086 11.8716 16.4404 12.1763L15.374 10.9131C15.6406 10.6846 15.922 10.4688 16.2183 10.2656C16.5187 10.0625 16.8657 9.89958 17.2593 9.77686C17.6571 9.6499 18.1331 9.58643 18.6875 9.58643C19.2969 9.58643 19.8195 9.69645 20.2554 9.9165C20.6955 10.1366 21.034 10.437 21.271 10.8179C21.508 11.1945 21.6265 11.6219 21.6265 12.1001C21.6265 12.6121 21.5249 13.0798 21.3218 13.5029C21.1187 13.9261 20.8224 14.3451 20.4331 14.7598C20.048 15.1745 19.5825 15.6336 19.0366 16.1372L17.8433 17.2607V17.3496H21.8867V19ZM28.9644 11.7954C28.9644 12.2228 28.8755 12.5931 28.6978 12.9062C28.52 13.2194 28.2788 13.4754 27.9741 13.6743C27.6737 13.8732 27.3351 14.0192 26.9585 14.1123V14.1504C27.7033 14.2435 28.2682 14.472 28.6533 14.8359C29.0426 15.1999 29.2373 15.6865 29.2373 16.2959C29.2373 16.8376 29.104 17.3221 28.8374 17.7495C28.575 18.1769 28.1688 18.5133 27.6187 18.7588C27.0685 19.0042 26.3597 19.127 25.4922 19.127C24.9801 19.127 24.502 19.0846 24.0576 19C23.6175 18.9196 23.2028 18.7948 22.8135 18.6255V16.9561C23.2113 17.1592 23.6281 17.3136 24.064 17.4194C24.4998 17.521 24.9061 17.5718 25.2827 17.5718C25.9852 17.5718 26.4761 17.4512 26.7554 17.21C27.0389 16.9645 27.1807 16.6217 27.1807 16.1816C27.1807 15.9235 27.1151 15.7056 26.9839 15.5278C26.8527 15.3501 26.6242 15.2147 26.2983 15.1216C25.9767 15.0285 25.526 14.9819 24.9463 14.9819H24.2417V13.4775H24.959C25.5303 13.4775 25.964 13.4246 26.2603 13.3188C26.5607 13.2088 26.7638 13.0607 26.8696 12.8745C26.9797 12.6841 27.0347 12.4683 27.0347 12.2271C27.0347 11.897 26.9331 11.6388 26.73 11.4526C26.5269 11.2664 26.1883 11.1733 25.7144 11.1733C25.4181 11.1733 25.1473 11.2114 24.9019 11.2876C24.6606 11.3595 24.4427 11.4484 24.248 11.5542C24.0534 11.6558 23.882 11.7552 23.7339 11.8525L22.8262 10.5005C23.1901 10.2381 23.6154 10.0202 24.1021 9.84668C24.5929 9.67318 25.1769 9.58643 25.854 9.58643C26.8104 9.58643 27.5679 9.77897 28.1265 10.1641C28.6851 10.5492 28.9644 11.0929 28.9644 11.7954Z" fill="black"/>
</g>
<defs>
<clipPath id="clip0_78_264">
<rect width="31" height="401" fill="white"/>
</clipPath>
</defs>
</svg>
